<svg width="775" height="84" viewBox="0 0 775 84" fill="none" xmlns="http://www.w3.org/2000/svg">
<g clip-path="url(#clip0_442_33)">
<path d="M765.128 1.23438H9.87291C5.10198 1.23438 1.23438 5.10198 1.23438 9.87291V74.0449C1.23438 78.8158 5.10198 82.6834 9.87291 82.6834H765.128C769.899 82.6834 773.766 78.8158 773.766 74.0449V9.87291C773.766 5.10198 769.899 1.23438 765.128 1.23438Z" fill="#28282C" stroke="url(#paint0_linear_442_33)" stroke-width="2.46815"/>
<path d="M29.6224 39.3434V32.1487H33.6948C36.1654 32.1487 37.6858 33.5877 37.6858 35.7868C37.6858 37.9045 36.1654 39.3434 33.6948 39.3434H29.6224ZM34.0478 41.3796C37.6044 41.3796 39.9664 38.9905 39.9664 35.7597C39.9664 32.556 37.6044 30.1125 34.0478 30.1125H27.3418V49.3616H29.6224V41.3796H34.0478ZM47.6374 35.9768C43.8908 35.9768 41.1215 38.8547 41.1215 42.8457C41.1215 46.8639 43.8908 49.7417 47.6374 49.7417C51.3841 49.7417 54.1533 46.8639 54.1533 42.8457C54.1533 38.8547 51.3841 35.9768 47.6374 35.9768ZM47.6374 37.9316C49.9723 37.9316 51.9814 39.6964 51.9814 42.8457C51.9814 46.0222 49.9723 47.787 47.6374 47.787C45.3025 47.787 43.2935 46.0222 43.2935 42.8457C43.2935 39.6964 45.3025 37.9316 47.6374 37.9316ZM64.9473 36.3569L61.3636 46.6467L58.187 36.3569H55.8522L60.169 49.3616H62.4767L66.0605 38.9905L69.6985 49.3616H71.9791L76.2144 36.3569H73.9067L70.8116 46.6467L67.2007 36.3569H64.9473ZM80.2027 41.5968C80.3385 39.6692 81.8589 37.9045 84.1123 37.9045C86.5829 37.9045 87.9132 39.5335 87.9675 41.5968H80.2027ZM88.2662 44.9905C87.7503 46.5381 86.5558 47.787 84.3566 47.787C82.0218 47.787 80.1484 46.0222 80.1484 43.5516V43.443H90.1667C90.1938 43.253 90.221 42.9543 90.221 42.6828C90.221 38.719 88.0218 35.9768 84.0851 35.9768C80.8 35.9768 77.9221 38.719 77.9221 42.8186C77.9221 47.1897 80.8815 49.7417 84.3566 49.7417C87.3702 49.7417 89.4065 47.9227 90.1395 45.6693L88.2662 44.9905ZM100.484 36.2755C100.294 36.2212 99.9136 36.1669 99.5607 36.1669C98.1218 36.1669 96.4656 36.7913 95.624 38.6918V36.3569H93.5063V49.3616H95.6783V42.6285C95.6783 39.6964 97.1715 38.4475 99.3435 38.4475C99.7236 38.4475 100.131 38.4746 100.484 38.5832V36.2755ZM104.144 41.5968C104.28 39.6692 105.8 37.9045 108.054 37.9045C110.524 37.9045 111.855 39.5335 111.909 41.5968H104.144ZM112.208 44.9905C111.692 46.5381 110.497 47.787 108.298 47.787C105.963 47.787 104.09 46.0222 104.09 43.5516V43.443H114.108C114.135 43.253 114.163 42.9543 114.163 42.6828C114.163 38.719 111.963 35.9768 108.027 35.9768C104.742 35.9768 101.864 38.719 101.864 42.8186C101.864 47.1897 104.823 49.7417 108.298 49.7417C111.312 49.7417 113.348 47.9227 114.081 45.6693L112.208 44.9905ZM126.869 47.4883C126.869 48.33 126.95 49.063 127.005 49.3616H129.122C129.068 49.0901 128.987 48.2214 128.987 46.9182V29.7324H126.815V38.4475C126.38 37.3615 125.104 35.9768 122.606 35.9768C118.968 35.9768 116.579 39.0719 116.579 42.8457C116.579 46.701 118.86 49.7417 122.606 49.7417C124.86 49.7417 126.272 48.4114 126.869 47.1354V47.4883ZM122.796 47.787C120.353 47.787 118.751 45.7236 118.751 42.8457C118.751 39.9679 120.326 37.9316 122.796 37.9316C125.267 37.9316 126.869 39.9679 126.869 42.8457C126.869 45.7236 125.24 47.787 122.796 47.787ZM142.261 49.3616V47.2168C143.021 48.6286 144.542 49.7417 146.714 49.7417C150.488 49.7417 152.687 46.7281 152.687 42.8457C152.687 39.0448 150.623 35.9768 146.768 35.9768C144.433 35.9768 142.913 37.2529 142.316 38.4746V29.7324H140.144V49.3616H142.261ZM146.388 47.787C143.89 47.787 142.261 45.7236 142.261 42.8457C142.261 39.9679 143.863 37.9316 146.388 37.9316C148.913 37.9316 150.515 39.9679 150.515 42.8457C150.515 45.7236 148.886 47.787 146.388 47.787ZM158.86 54.5201L167.195 36.3569H164.833L160.788 45.5607L156.498 36.3569H154L159.593 47.8141L156.444 54.5201H158.86ZM181.528 37.9316C183.863 37.9316 184.922 39.5335 185.275 40.9181L187.229 40.0765C186.686 38.0131 184.867 35.9768 181.528 35.9768C177.863 35.9768 175.094 38.8004 175.094 42.8457C175.094 46.8096 177.809 49.7417 181.555 49.7417C184.895 49.7417 186.714 47.6241 187.338 45.6964L185.438 44.8548C185.058 46.0494 184.026 47.787 181.555 47.787C179.247 47.787 177.266 45.9679 177.266 42.8457C177.266 39.6964 179.247 37.9316 181.528 37.9316ZM197.417 36.2755C197.227 36.2212 196.847 36.1669 196.494 36.1669C195.055 36.1669 193.399 36.7913 192.557 38.6918V36.3569H190.439V49.3616H192.611V42.6285C192.611 39.6964 194.105 38.4475 196.277 38.4475C196.657 38.4475 197.064 38.4746 197.417 38.5832V36.2755ZM203.296 54.5201L211.631 36.3569H209.269L205.224 45.5607L200.934 36.3569H198.437L204.029 47.8141L200.88 54.5201H203.296ZM216.367 54.5201V47.3526C217.046 48.5743 218.539 49.7417 220.766 49.7417C224.512 49.7417 226.738 46.7281 226.738 42.8457C226.738 38.9633 224.648 35.9768 220.82 35.9768C218.512 35.9768 216.992 37.1986 216.313 38.5289V36.3569H214.195V54.5201H216.367ZM220.44 47.787C217.942 47.787 216.313 45.7236 216.313 42.8457C216.313 39.9679 217.915 37.9316 220.44 37.9316C222.965 37.9316 224.566 39.9679 224.566 42.8457C224.566 45.7236 222.937 47.787 220.44 47.787ZM233.041 32.2302H231.004V34.375C231.004 35.5968 230.434 36.3569 229.104 36.3569H228.262V38.3117H230.869V45.805C230.869 48.1671 232.253 49.4974 234.398 49.4974C235.24 49.4974 235.864 49.3345 236.109 49.253V47.4069C235.891 47.4612 235.403 47.5426 235.023 47.5426C233.638 47.5426 233.041 46.8639 233.041 45.5064V38.3117H236.109V36.3569H233.041V32.2302ZM244.711 35.9768C240.965 35.9768 238.195 38.8547 238.195 42.8457C238.195 46.8639 240.965 49.7417 244.711 49.7417C248.459 49.7417 251.228 46.8639 251.228 42.8457C251.228 38.8547 248.459 35.9768 244.711 35.9768ZM244.711 37.9316C247.047 37.9316 249.056 39.6964 249.056 42.8457C249.056 46.0222 247.047 47.787 244.711 47.787C242.376 47.787 240.367 46.0222 240.367 42.8457C240.367 39.6964 242.376 37.9316 244.711 37.9316Z" fill="white"/>
<path d="M370.088 48.9887C370.705 48.9887 371.209 48.5136 371.209 47.9276V33.4969C371.209 32.9107 370.705 32.4355 370.088 32.4355H368.876C368.257 32.4355 367.756 32.9107 367.756 33.4969V47.9276C367.756 48.5136 368.257 48.9887 368.876 48.9887H370.088Z" fill="white"/>
<path d="M396.486 48.9887C397.106 48.9887 397.607 48.5136 397.607 47.9276V33.4969C397.607 32.9107 397.106 32.4355 396.486 32.4355H395.326C394.707 32.4355 394.206 32.9107 394.206 33.4969V43.3855L387.26 32.9316C387.056 32.6229 386.698 32.4355 386.313 32.4355H383.81C383.191 32.4355 382.689 32.9107 382.689 33.4969V47.9276C382.689 48.5136 383.191 48.9887 383.81 48.9887H384.973C385.59 48.9887 386.093 48.5136 386.093 47.9276V37.245L393.702 48.4998C393.907 48.8046 394.263 48.9887 394.645 48.9887H396.486Z" fill="white"/>
<path d="M420.812 35.4941C421.431 35.4941 421.932 35.019 421.932 34.4328V33.4969C421.932 32.9107 421.431 32.4355 420.812 32.4355H408.58C407.96 32.4355 407.459 32.9107 407.459 33.4969V34.4328C407.459 35.019 407.96 35.4941 408.58 35.4941H412.98V47.9276C412.98 48.5136 413.484 48.9887 414.103 48.9887H415.288C415.907 48.9887 416.408 48.5136 416.408 47.9276V35.4941H420.812Z" fill="white"/>
<path d="M441.604 48.9887C442.221 48.9887 442.724 48.5136 442.724 47.9276V47.0149C442.724 46.4287 442.221 45.9536 441.604 45.9536H435.177V42.1248H440.888C441.507 42.1248 442.008 41.6497 442.008 41.0635V40.3141C442.008 39.7282 441.507 39.2531 440.888 39.2531H435.177V35.4706H441.604C442.221 35.4706 442.724 34.9955 442.724 34.4093V33.4969C442.724 32.9107 442.221 32.4355 441.604 32.4355H432.896C432.276 32.4355 431.775 32.9107 431.775 33.4969V47.9276C431.775 48.5136 432.276 48.9887 432.896 48.9887H441.604Z" fill="white"/>
<path d="M461.773 48.4092C461.965 48.7648 462.35 48.9887 462.772 48.9887H464.029C464.873 48.9887 465.413 48.1416 465.021 47.435L462.133 42.2181C464.426 41.5877 465.858 39.8365 465.858 37.5254C465.858 34.6534 463.688 32.4355 460.284 32.4355H454.576C453.956 32.4355 453.455 32.9107 453.455 33.4969V47.9276C453.455 48.5136 453.956 48.9887 454.576 48.9887H455.76C456.38 48.9887 456.881 48.5136 456.881 47.9276V42.6149H458.658L461.773 48.4092ZM456.881 39.8365V35.2371H459.643C461.37 35.2371 462.38 36.1476 462.38 37.5486C462.38 38.9028 461.37 39.8365 459.643 39.8365H456.881Z" fill="white"/>
<path d="M490.18 48.9887C490.799 48.9887 491.3 48.5136 491.3 47.9276V33.4969C491.3 32.9107 490.799 32.4355 490.18 32.4355H489.02C488.4 32.4355 487.897 32.9107 487.897 33.4969V43.3855L480.954 32.9316C480.749 32.6229 480.389 32.4355 480.004 32.4355H477.503C476.884 32.4355 476.383 32.9107 476.383 33.4969V47.9276C476.383 48.5136 476.884 48.9887 477.503 48.9887H478.663C479.283 48.9887 479.786 48.5136 479.786 47.9276V37.245L487.396 48.4998C487.601 48.8046 487.956 48.9887 488.339 48.9887H490.18Z" fill="white"/>
<path d="M512.63 48.9887C513.25 48.9887 513.753 48.5136 513.753 47.9276V47.0149C513.753 46.4287 513.25 45.9536 512.63 45.9536H506.206V42.1248H511.917C512.534 42.1248 513.038 41.6497 513.038 41.0635V40.3141C513.038 39.7282 512.534 39.2531 511.917 39.2531H506.206V35.4706H512.63C513.25 35.4706 513.753 34.9955 513.753 34.4093V33.4969C513.753 32.9107 513.25 32.4355 512.63 32.4355H503.925C503.306 32.4355 502.805 32.9107 502.805 33.4969V47.9276C502.805 48.5136 503.306 48.9887 503.925 48.9887H512.63Z" fill="white"/>
<path d="M536.185 35.4941C536.802 35.4941 537.306 35.019 537.306 34.4328V33.4969C537.306 32.9107 536.802 32.4355 536.185 32.4355H523.951C523.331 32.4355 522.83 32.9107 522.83 33.4969V34.4328C522.83 35.019 523.331 35.4941 523.951 35.4941H528.354V47.9276C528.354 48.5136 528.855 48.9887 529.474 48.9887H530.662C531.279 48.9887 531.782 48.5136 531.782 47.9276V35.4941H536.185Z" fill="white"/>
<path d="M567.635 49.3396C571.94 49.3396 574.403 46.9701 575.392 44.6708C575.617 44.1473 575.276 43.5846 574.704 43.4209L573.63 43.1136C573.033 42.9424 572.411 43.2756 572.112 43.7949C571.394 45.0376 569.992 46.1877 567.635 46.1877C564.824 46.1877 562.21 44.25 562.21 40.7245C562.21 36.9655 564.972 35.1911 567.586 35.1911C569.953 35.1911 571.298 36.2561 571.974 37.4779C572.273 38.0194 572.914 38.3745 573.531 38.1907L574.6 37.8713C575.163 37.7032 575.501 37.1469 575.281 36.6276C574.294 34.269 571.853 32.0859 567.586 32.0859C562.901 32.0859 558.686 35.4481 558.686 40.7245C558.686 46.0009 562.753 49.3396 567.635 49.3396Z" fill="white"/>
<path d="M588.248 40.701C588.248 36.9655 591.01 35.1911 593.697 35.1911C596.41 35.1911 599.172 36.9655 599.172 40.701C599.172 44.4368 596.41 46.2112 593.697 46.2112C591.01 46.2112 588.248 44.4368 588.248 40.701ZM584.721 40.7245C584.721 46.0478 588.963 49.3396 593.697 49.3396C598.456 49.3396 602.699 46.0478 602.699 40.7245C602.699 35.378 598.456 32.0859 593.697 32.0859C588.963 32.0859 584.721 35.378 584.721 40.7245Z" fill="white"/>
<path d="M631.526 48.9887C632.143 48.9887 632.646 48.5136 632.646 47.9276V33.4969C632.646 32.9107 632.143 32.4355 631.526 32.4355H628.764C628.307 32.4355 627.898 32.6972 627.727 33.0973L622.882 44.3893L617.916 33.0891C617.741 32.6935 617.334 32.4355 616.882 32.4355H614.261C613.642 32.4355 613.141 32.9107 613.141 33.4969V47.9276C613.141 48.5136 613.642 48.9887 614.261 48.9887H615.276C615.895 48.9887 616.396 48.5136 616.396 47.9276V37.4785L621.14 48.3334C621.313 48.73 621.722 48.9887 622.177 48.9887H623.509C623.966 48.9887 624.376 48.7288 624.548 48.3305L629.292 37.3852V47.9276C629.292 48.5136 629.793 48.9887 630.413 48.9887H631.526Z" fill="white"/>
<path d="M647.567 39.9767V35.2371H650.252C651.955 35.2371 652.989 36.1476 652.989 37.6187C652.989 39.0428 651.955 39.9767 650.252 39.9767H647.567ZM650.672 42.7551C654.125 42.7551 656.418 40.6071 656.418 37.5952C656.418 34.6068 654.125 32.4355 650.672 32.4355H645.259C644.64 32.4355 644.139 32.9107 644.139 33.4969V47.9276C644.139 48.5136 644.64 48.9887 645.259 48.9887H646.419C647.039 48.9887 647.542 48.5136 647.542 47.9276V42.7551H650.672Z" fill="white"/>
<path d="M673.025 49.3624C676.771 49.3624 679.756 47.1912 679.756 43.1286V33.4969C679.756 32.9107 679.254 32.4355 678.635 32.4355H677.472C676.855 32.4355 676.352 32.9107 676.352 33.4969V42.8951C676.352 45.0666 675.096 46.2106 673.025 46.2106C671.001 46.2106 669.72 45.0666 669.72 42.8951V33.4969C669.72 32.9107 669.219 32.4355 668.599 32.4355H667.437C666.817 32.4355 666.316 32.9107 666.316 33.4969V43.1286C666.316 47.1912 669.3 49.3624 673.025 49.3624Z" fill="white"/>
<path d="M702.806 35.4941C703.425 35.4941 703.926 35.019 703.926 34.4328V33.4969C703.926 32.9107 703.425 32.4355 702.806 32.4355H690.574C689.954 32.4355 689.453 32.9107 689.453 33.4969V34.4328C689.453 35.019 689.954 35.4941 690.574 35.4941H694.977V47.9276C694.977 48.5136 695.478 48.9887 696.097 48.9887H697.282C697.902 48.9887 698.403 48.5136 698.403 47.9276V35.4941H702.806Z" fill="white"/>
<path d="M723.598 48.9887C724.215 48.9887 724.718 48.5136 724.718 47.9276V47.0149C724.718 46.4287 724.215 45.9536 723.598 45.9536H717.173V42.1248H722.882C723.501 42.1248 724.003 41.6497 724.003 41.0635V40.3141C724.003 39.7282 723.501 39.2531 722.882 39.2531H717.173V35.4706H723.598C724.215 35.4706 724.718 34.9955 724.718 34.4093V33.4969C724.718 32.9107 724.215 32.4355 723.598 32.4355H714.89C714.271 32.4355 713.77 32.9107 713.77 33.4969V47.9276C713.77 48.5136 714.271 48.9887 714.89 48.9887H723.598Z" fill="white"/>
<path d="M743.765 48.4092C743.957 48.7648 744.342 48.9887 744.765 48.9887H746.021C746.865 48.9887 747.405 48.1416 747.013 47.435L744.125 42.2181C746.421 41.5877 747.85 39.8365 747.85 37.5254C747.85 34.6534 745.68 32.4355 742.277 32.4355H735.447V47.9276C735.447 48.5136 735.948 48.9887 736.568 48.9887H737.752C738.372 48.9887 738.873 48.5136 738.873 47.9276V42.6149H740.65L743.765 48.4092ZM738.873 39.8365V35.2371H741.635C743.363 35.2371 744.372 36.1476 744.372 37.5486C744.372 38.9028 743.363 39.8365 741.635 39.8365H738.873Z" fill="white"/>
<path d="M332.346 22.2129C327.671 22.2129 322.574 24.6085 317.189 29.3271C314.632 31.5627 312.425 33.9583 310.771 35.8749C310.771 35.8749 310.771 35.8749 310.786 35.8894V35.8749C310.786 35.8749 313.398 38.7204 316.288 41.7693C317.84 39.9256 320.076 37.4138 322.646 35.149C327.439 30.9531 330.559 30.0675 332.346 30.0675C339.066 30.0675 344.526 35.3958 344.526 41.9436C344.526 48.4479 339.052 53.7761 332.346 53.8198C332.04 53.8198 331.647 53.7761 331.153 53.6747C333.116 54.5166 335.219 55.1265 337.223 55.1265C349.534 55.1265 351.945 47.0975 352.106 46.517C352.468 45.0505 352.656 43.5116 352.656 41.929C352.656 31.0691 343.539 22.2129 332.346 22.2129Z" fill="url(#paint1_linear_442_33)"/>
<path d="M289.34 61.7035C294.017 61.7035 299.111 59.3079 304.499 54.5893C307.054 52.3534 309.26 49.9578 310.916 48.0415C310.916 48.0415 310.916 48.0415 310.902 48.027V48.0415C310.902 48.0415 308.288 45.1958 305.398 42.1469C303.845 43.9908 301.609 46.5024 299.04 48.7674C294.249 52.9633 291.127 53.8489 289.34 53.8489C282.619 53.8343 277.159 48.5061 277.159 41.9583C277.159 35.454 282.634 30.1255 289.34 30.082C289.646 30.082 290.038 30.1255 290.532 30.2272C288.572 29.3853 286.467 28.7754 284.463 28.7754C272.152 28.7754 269.755 36.804 269.582 37.3702C269.217 38.8511 269.029 40.3757 269.029 41.9583C269.029 52.847 278.147 61.7035 289.34 61.7035Z" fill="url(#paint2_linear_442_33)"/>
<path d="M337.195 54.9522C330.893 54.7925 324.345 49.8271 323.01 48.593C319.555 45.399 311.583 36.7604 310.958 36.078C305.123 29.5302 297.211 22.2129 289.342 22.2129H289.327H289.312C279.758 22.2565 271.729 28.7318 269.582 37.3703C269.74 36.8041 272.892 28.6155 284.448 28.906C290.749 29.0657 297.327 34.1035 298.677 35.3375C302.132 38.5318 310.102 47.1704 310.726 47.8526C316.563 54.386 324.476 61.7033 332.345 61.7033H332.359H332.374C341.926 61.6596 349.97 55.1845 352.105 46.5459C351.929 47.1121 348.765 55.2281 337.195 54.9522Z" fill="#29ABE2"/>
</g>
<defs>
<linearGradient id="paint0_linear_442_33" x1="111.122" y1="12.0325" x2="123.867" y2="129.741" gradientUnits="userSpaceOnUse">
<stop stop-color="#A1A2A7"/>
<stop offset="1" stop-color="#565861"/>
</linearGradient>
<linearGradient id="paint1_linear_442_33" x1="321.772" y1="24.8168" x2="349.388" y2="53.4138" gradientUnits="userSpaceOnUse">
<stop offset="0.21" stop-color="#F15A24"/>
<stop offset="0.6841" stop-color="#FBB03B"/>
</linearGradient>
<linearGradient id="paint2_linear_442_33" x1="299.913" y1="59.0996" x2="272.297" y2="30.5026" gradientUnits="userSpaceOnUse">
<stop offset="0.21" stop-color="#ED1E79"/>
<stop offset="0.8929" stop-color="#522785"/>
</linearGradient>
<clipPath id="clip0_442_33">
<rect width="775" height="83.9172" fill="white"/>
</clipPath>
</defs>
</svg>
