<svg width="61" height="61" viewBox="0 0 61 61" fill="none" xmlns="http://www.w3.org/2000/svg">
<path d="M28.7145 0.207729C24.7524 1.19925 21.7688 5.88086 20.0614 13.7503C19.4151 16.7624 18.8184 21.4065 18.8184 23.5272V24.4431H23.9568H29.0952V29.903V35.3628H30.8359H32.5766V29.903V24.4431H37.8312H43.0695L42.9704 22.3347C42.9038 21.1803 42.7049 19.1345 42.5231 17.7914C41.5618 10.7002 39.804 5.83045 37.1354 2.78089C36.0913 1.60127 35.0634 0.86055 33.8367 0.408741C32.627 -0.030777 30.0906 -0.143883 28.7145 0.207729Z" fill="white"/>
<path d="M20.2362 1.56243C12.8214 3.88356 6.84625 8.16261 3.10601 13.8336C1.35181 16.5185 0.47471 18.8403 0.109928 21.701C-0.0554404 22.9934 -0.0392282 23.2318 0.192611 23.6085C0.656291 24.349 0.888131 24.3988 4.18171 24.4744L7.17779 24.5371L13.9968 29.9954L20.8158 35.4538L18.1675 35.5165C15.5524 35.5792 15.5192 35.5792 15.0725 35.9307L14.6088 36.2693L14.5594 47.6875C14.5099 60.2475 14.4767 59.633 15.5192 60.0466C16.2471 60.3354 45.4102 60.3354 46.1382 60.0466C47.1977 59.6324 47.1312 60.4356 47.1312 47.9007C47.1312 35.742 47.1474 35.9805 46.353 35.6923C46.1876 35.6296 44.9628 35.554 43.622 35.5165L41.1893 35.4538L48.2239 29.9954L55.2748 24.5371L57.4432 24.4744C59.8597 24.3988 60.2074 24.3115 60.6379 23.6085C60.8697 23.2318 60.8859 22.994 60.7206 21.6764C60.3728 18.8655 59.5452 16.6826 57.8242 13.9971C54.4641 8.73967 49.0021 4.58597 42.2496 2.11428C41.3393 1.78796 40.5449 1.51203 40.4622 1.51203C40.3957 1.51203 40.5449 1.75048 40.7929 2.03931C41.9683 3.45706 43.408 6.33066 44.2851 9.04079C45.5764 12.9806 46.2379 16.7447 46.7348 23.1193L46.8345 24.4621L48.5393 24.4996L50.2602 24.5371L43.2094 29.9954C37.4004 34.5 36.0929 35.4661 35.6787 35.4913L35.1817 35.5288L35.5457 35.7297C36.3401 36.1562 36.3734 36.3695 36.3734 42.3545C36.3734 48.3524 36.3401 48.5528 35.5295 48.9922C35.1988 49.1679 34.5365 49.1931 30.7792 49.1931H26.4099L25.93 48.8293L25.4502 48.4655V42.3545V36.2441L25.93 35.8926C26.3605 35.554 26.3767 35.5288 26.0792 35.4913C25.8968 35.4661 22.6697 32.9944 18.9295 29.9954L12.0934 24.5371L13.5996 24.4744L15.1057 24.4117L15.2217 22.2786C15.5694 15.829 17.0585 9.29214 19.0778 5.26443C19.6898 4.04763 20.9812 2.03992 21.5105 1.48745C21.6759 1.2865 21.7756 1.13594 21.6929 1.13594C21.6264 1.14823 20.965 1.33628 20.2362 1.56243Z" fill="white"/>
</svg>
