<svg width="55" height="26" viewBox="0 0 55 26" fill="none" xmlns="http://www.w3.org/2000/svg">
<path d="M41.2991 0.5C38.263 0.5 34.9475 2.00404 31.4451 4.96926C29.7864 6.37388 28.3486 7.87701 27.2695 9.0828C27.2714 9.08462 27.2733 9.08644 27.2752 9.08918C27.278 9.08553 27.2799 9.08371 27.2799 9.08371C27.2799 9.08371 28.982 10.8741 30.855 12.7905C31.8633 11.633 33.32 10.0533 34.9947 8.63587C38.1082 5.99901 40.1417 5.44628 41.2991 5.44628C45.6663 5.44628 49.2187 8.79275 49.2187 12.9054C49.2187 16.9952 45.6644 20.3389 41.2934 20.3645C41.0942 20.3645 40.8384 20.3408 40.5231 20.2733C41.7966 20.8059 43.1655 21.189 44.4692 21.189C52.4738 21.189 54.0381 16.1424 54.1448 15.7849C54.3817 14.86 54.5073 13.8968 54.5073 12.9063C54.5064 6.06468 48.5815 0.5 41.2991 0.5Z" fill="url(#paint0_linear_1738_1693)"/>
<path d="M13.3371 25.3081C16.3732 25.3081 19.6887 23.8041 23.1911 20.8389C24.8498 19.4343 26.2876 17.9311 27.3667 16.7254C27.3648 16.7235 27.3629 16.7217 27.361 16.719C27.3582 16.7226 27.3563 16.7244 27.3563 16.7244C27.3563 16.7244 25.6542 14.934 23.7812 13.0177C22.7729 14.1751 21.3162 15.7549 19.6415 17.1723C16.528 19.8091 14.4945 20.3619 13.3371 20.3619C8.96995 20.3619 5.41748 17.0154 5.41748 12.9028C5.41748 8.81294 8.97183 5.46921 13.3428 5.44367C13.542 5.44367 13.7978 5.46739 14.1131 5.53488C12.8396 5.00222 11.4707 4.61914 10.167 4.61914C2.16239 4.61914 0.598099 9.66575 0.491422 10.0233C0.254465 10.9482 0.128906 11.9113 0.128906 12.9019C0.12985 19.7435 6.05472 25.3081 13.3371 25.3081Z" fill="url(#paint1_linear_1738_1693)"/>
<path d="M44.4577 21.0631C40.3596 20.9655 36.1001 17.8434 35.2306 17.0673C32.9856 15.0616 27.8047 9.63096 27.3978 9.20501C23.5999 5.09695 18.4538 0.5 13.3399 0.5H13.3333H13.3267C7.11012 0.530099 1.88574 4.59712 0.496094 10.0259C0.602772 9.66836 2.64475 4.52598 10.1651 4.70475C14.2632 4.80234 18.5435 7.96639 19.4121 8.74258C21.657 10.7483 26.8399 16.1798 27.2448 16.6057C31.0428 20.7129 36.1888 25.3089 41.3027 25.3089H41.3093H41.3159C47.5325 25.2788 52.7569 21.2118 54.1465 15.783C54.0408 16.1406 51.9781 21.2419 44.4577 21.0631Z" fill="#29ABE2"/>
<defs>
<linearGradient id="paint0_linear_1738_1693" x1="34.424" y1="2.1358" x2="51.7418" y2="20.6973" gradientUnits="userSpaceOnUse">
<stop offset="0.21" stop-color="#F15A24"/>
<stop offset="0.6841" stop-color="#FBB03B"/>
</linearGradient>
<linearGradient id="paint1_linear_1738_1693" x1="20.2122" y1="23.6724" x2="2.89435" y2="5.11081" gradientUnits="userSpaceOnUse">
<stop offset="0.21" stop-color="#ED1E79"/>
<stop offset="0.8929" stop-color="#522785"/>
</linearGradient>
</defs>
</svg>
