<svg width="93" height="93" viewBox="0 0 93 93" fill="none" xmlns="http://www.w3.org/2000/svg">
<path d="M92.988 5.71956C92.9818 5.44366 92.9715 5.16776 92.9612 4.89082C92.9498 4.58185 92.9405 4.27391 92.924 3.96391C92.8919 3.34184 92.8516 2.71666 92.7989 2.08942C92.7152 1.08398 91.9164 0.286236 90.911 0.201502C90.2838 0.148802 89.6607 0.109535 89.0396 0.0764675C88.7244 0.059934 88.4124 0.0506339 88.1003 0.0392671C87.8296 0.029967 87.5578 0.0186002 87.2881 0.0134335C86.8365 0.00310004 86.388 0 85.9406 0C85.8662 0 85.7908 2.04505e-09 85.7164 0.00103335C76.8007 0.0444338 68.6166 2.23306 60.354 6.74464C60.2083 6.82524 60.0626 6.90068 59.9169 6.98024C59.8652 7.00918 59.8146 7.03398 59.7629 7.06291C59.7515 7.06911 59.7422 7.07944 59.7309 7.08564C52.9563 10.8615 46.193 16.1904 39.1931 23.1903C38.3975 23.986 37.6194 24.792 36.8495 25.6021L23.2466 26.6365C22.8487 26.6665 22.4685 26.8112 22.1512 27.0519L0.815759 43.2889C0.136852 43.8055 -0.155585 44.686 0.081051 45.5054C0.316654 46.3248 1.03173 46.9149 1.88114 46.9924L21.9001 48.7997L28.2387 55.1382C25.9922 55.6518 23.7033 56.9104 21.7431 58.8696C20.5692 60.0446 19.6268 61.361 18.9365 62.7994C18.0344 64.7101 16.0535 69.6299 13.9558 74.8389L12.9317 77.3799C12.6217 78.1488 12.8005 79.0281 13.3874 79.614C13.7822 80.0098 14.3112 80.2196 14.8496 80.2196C15.109 80.2196 15.3714 80.17 15.6226 80.0687L18.2545 79.0075C23.4212 76.9263 28.3017 74.9599 30.2165 74.0577C31.6425 73.3716 32.96 72.4292 34.1329 71.2563C36.0921 69.2971 37.3497 67.0083 37.8632 64.7618L44.0137 70.9122L45.821 90.9302C45.8975 91.7796 46.4886 92.4947 47.308 92.7303C47.4971 92.785 47.6893 92.8109 47.8794 92.8109C48.5139 92.8109 49.1267 92.5184 49.5245 91.9956L65.7594 70.6611C66.0002 70.3439 66.1448 69.9636 66.1748 69.5658L67.1782 56.3648C68.0637 55.5268 68.9411 54.6753 69.8101 53.8073C76.8151 46.8022 82.1472 40.0359 85.9241 33.2572C85.9282 33.2499 85.9344 33.2437 85.9385 33.2365C85.9571 33.2034 85.9726 33.1714 85.9912 33.1383C86.1638 32.8273 86.3281 32.5163 86.4934 32.2042C90.8407 24.0955 92.9529 16.0478 92.9984 7.30161C92.9994 7.21585 92.9994 7.13111 92.9994 7.04534C93.0015 6.60617 92.9984 6.1639 92.988 5.71956ZM66.5654 38.645C64.9358 40.2746 62.7679 41.1736 60.4614 41.1736C58.156 41.1736 55.9881 40.2756 54.3575 38.645C50.9919 35.2784 50.9919 29.8027 54.3575 26.4361C57.7251 23.0705 63.2019 23.0725 66.5654 26.4361C68.196 28.0656 69.095 30.2336 69.095 32.54C69.095 34.8464 68.1971 37.0144 66.5654 38.645Z" fill="white"/>
</svg>
