<svg width="125" height="94" viewBox="0 0 125 94" fill="none" xmlns="http://www.w3.org/2000/svg">
<path d="M105.954 7.89576C103.917 6.97376 101.849 6.11323 99.7491 5.31417C97.6495 4.5151 95.522 3.78519 93.3666 3.12442C91.2113 2.46289 89.0288 1.87089 86.8193 1.34842C84.6097 0.825957 82.3761 0.376483 80.1185 0C79.8339 0.485201 79.5377 1.0142 79.2496 1.56624C78.9615 2.11829 78.6687 2.69454 78.3829 3.27425C78.0972 3.85395 77.8242 4.43827 77.5698 5.00299C77.3153 5.56772 77.0667 6.12322 76.846 6.63954C74.4452 6.29456 72.0478 6.03563 69.6539 5.86276C67.26 5.68988 64.8708 5.60344 62.4862 5.60344C60.1016 5.60344 57.7208 5.68988 55.344 5.86276C52.9671 6.03563 50.5946 6.29456 48.2262 6.63954C48.0055 6.12322 47.7615 5.57117 47.492 5.00299C47.2225 4.43481 46.9437 3.85049 46.6556 3.27425C46.3675 2.698 46.0747 2.12175 45.7843 1.56624C45.4939 1.01074 45.2069 0.485201 44.9409 0C42.6671 0.376483 40.4211 0.825957 38.203 1.34842C35.9849 1.87089 33.7986 2.46289 31.644 3.12442C29.4879 3.78595 27.3639 4.51587 25.2721 5.31417C23.1802 6.11246 21.1228 6.97299 19.0999 7.89576C15.2131 13.5444 11.8287 19.5176 8.98494 25.7479C6.39741 31.4366 4.34374 37.3497 2.84997 43.4123C1.44405 49.1558 0.556098 55.0121 0.196636 60.9118C-0.149337 66.6974 -0.0386377 72.5011 0.527722 78.2696C3.24379 80.2288 5.93663 81.9944 8.60855 83.5918C11.2805 85.1892 13.9315 86.616 16.5662 87.8975C19.201 89.1791 21.816 90.3178 24.4182 91.3216C27.0204 92.3254 29.6064 93.2163 32.1831 94C32.8158 93.1548 33.4319 92.2935 34.0313 91.4161C34.6308 90.5387 35.2132 89.6474 35.7785 88.7423C36.3431 87.8372 36.8895 86.9191 37.4177 85.9878C37.9459 85.0566 38.4547 84.1131 38.9442 83.1573C38.0148 82.8123 37.0947 82.4478 36.184 82.0636C35.2732 81.6794 34.3748 81.276 33.4888 80.8535C32.5982 80.4309 31.7184 79.9872 30.8494 79.5223C29.9805 79.0575 29.1196 78.5773 28.2669 78.0817C28.4869 77.928 28.7068 77.7682 28.9268 77.6023C29.1467 77.4363 29.3651 77.27 29.582 77.1032C29.7988 76.935 30.0141 76.7648 30.2279 76.5927C30.4417 76.4206 30.6523 76.2489 30.8599 76.0775C35.8955 78.3709 41.1608 80.1313 46.5685 81.3295C51.8231 82.4901 57.19 83.0771 62.5733 83.0801C67.9405 83.079 73.2914 82.4924 78.5293 81.3306C83.8925 80.1362 89.1113 78.3751 94.0962 76.0775C94.3161 76.2512 94.5338 76.4236 94.7491 76.595C94.9644 76.7663 95.1789 76.9365 95.3927 77.1055C95.6064 77.2738 95.8209 77.4394 96.0362 77.6023C96.2515 77.7652 96.4692 77.925 96.6891 78.0817C95.8372 78.5827 94.9772 79.064 94.109 79.5258C93.2408 79.9876 92.3622 80.4301 91.4731 80.8535C90.5847 81.2768 89.686 81.6802 88.7767 82.0636C87.8675 82.447 86.9471 82.8116 86.0154 83.1573C86.5048 84.1123 87.0137 85.0559 87.5418 85.9878C88.07 86.9198 88.6164 87.838 89.181 88.7423C89.7456 89.6474 90.3265 90.5383 90.9236 91.4149C91.5207 92.2916 92.1368 93.1529 92.7718 93.9988C95.3462 93.2151 97.9356 92.33 100.541 91.3204C103.147 90.3109 105.769 89.1768 108.406 87.8964C111.043 86.616 113.698 85.188 116.367 83.5907C119.037 81.9933 121.723 80.2277 124.425 78.2696C125.095 71.8312 125.18 65.3461 124.678 58.8926C124.194 52.7632 123.138 46.6915 121.523 40.7558C119.928 34.9232 117.814 29.2428 115.206 23.7818C112.56 18.2516 109.474 12.9394 105.977 7.89576H105.954ZM41.7695 64.0443C40.258 64.0433 38.7656 63.7091 37.4003 63.0658C36.0422 62.4225 34.827 61.5171 33.8257 60.4024C32.7837 59.2456 31.9654 57.9083 31.4117 56.4574C30.8227 54.9174 30.5223 53.2836 30.5253 51.6365C30.5213 49.9912 30.8157 48.3587 31.3943 46.8168C31.9371 45.3674 32.7458 44.0303 33.7792 42.8729C34.7755 41.7551 35.9895 40.8487 37.348 40.2083C38.7292 39.5648 40.2365 39.2311 41.7625 39.2311C43.2885 39.2311 44.7957 39.5648 46.177 40.2083C47.5444 40.849 48.7689 41.7546 49.7783 42.8718C50.8228 44.0252 51.639 45.3635 52.1842 46.8168C52.7629 48.3578 53.0427 49.9935 53.009 51.6377C53.0128 53.284 52.7156 54.9174 52.1319 56.4585C51.5838 57.9088 50.7705 59.2462 49.733 60.4035C48.734 61.52 47.5192 62.4261 46.1607 63.0681C44.7877 63.7117 43.288 64.0451 41.7695 64.0443ZM83.2761 64.0443C81.765 64.0433 80.273 63.709 78.9081 63.0658C77.5494 62.4223 76.3334 61.5169 75.3312 60.4024C74.288 59.2458 73.4685 57.9085 72.9136 56.4574C72.3224 54.9163 72.0208 53.2808 72.0238 51.6319C72.0199 49.9865 72.3146 48.3539 72.8939 46.8121C73.4387 45.3641 74.2489 44.0285 75.2835 42.8729C76.2807 41.755 77.4954 40.8487 78.8546 40.2083C80.2358 39.5648 81.7431 39.2311 83.2691 39.2311C84.7951 39.2311 86.3023 39.5648 87.6836 40.2083C89.051 40.849 90.2755 41.7546 91.2849 42.8718C92.3294 44.0252 93.1456 45.3635 93.6908 46.8168C94.2695 48.3578 94.5494 49.9935 94.5156 51.6377C94.5197 53.2833 94.2253 54.9163 93.6466 56.4585C93.1039 57.9083 92.2952 59.2458 91.2616 60.4035C90.2653 61.5214 89.0514 62.4278 87.6929 63.0681C86.3113 63.7131 84.8029 64.0464 83.2761 64.0443Z" fill="white"/>
</svg>
