<svg width="96" height="94" viewBox="0 0 96 94" fill="none" xmlns="http://www.w3.org/2000/svg">
<path d="M58.0099 93.3361C58.0099 93.3361 54.721 94 49.5484 94C44.3759 94 39.6388 93.3361 39.6388 93.3361C35.9721 92.1798 37.233 92.5697 36.0271 92.1798C22.1228 87.6846 10.277 80.3061 4.33551 66.5604C3.0968 62.8499 3.0968 62.8499 1.85795 58.5076C-0.619331 46.771 -0.619305 45.5341 1.85795 35.2898C3.09666 30.6921 4.33538 28.4474 7.80324 23.5L8.22626 25.8693C8.56506 27.211 8.7552 28.3712 8.67098 29.6842C7.80324 35.2898 7.60226 41.3866 7.80324 47.0974C8.25306 59.8378 14.3917 69.7648 24.6859 77.0963C32.35 82.5548 40.8039 85.2717 50.1678 85.1131C62.4469 84.9047 71.9323 77.9908 78.7696 68.7556C92.4173 50.3198 86.2883 25.0723 66.2359 13.9642C57.6931 9.23192 48.377 8.41008 39.4897 10.7647C28.4127 13.7004 22.1362 22.2704 20.603 33.5582C18.0515 52.3514 32.1012 69.8259 53.7136 64.354C62.0344 62.2479 66.9709 53.6568 65.7133 44.2592C64.718 36.8169 57.8539 30.8462 49.8854 30.4887C44.5718 30.2498 43.5917 31.1061 43.5534 36.3696C43.5037 43.4603 43.5783 50.553 43.5285 57.6437C43.5171 59.3389 43.2242 61.0342 43.0692 62.653C35.5332 62.8996 30.9987 58.8879 30.924 52.3935C30.8896 49.4922 31.014 46.5871 30.8876 43.6916C30.6445 38.0726 30.256 32.4592 29.9746 26.8402C29.8655 24.6633 30.1966 22.6546 32.4419 21.5021C39.9606 17.6414 47.8889 15.2886 56.246 17.5477C71.1188 21.569 81.011 36.836 78.3982 51.5755C75.4084 68.446 59.5804 79.7606 42.7916 76.156C30.2273 73.4592 20.335 66.8884 14.5027 54.8953C11.2946 48.2977 9.98535 41.4612 10.6132 34.2711C11.9646 18.7652 22.7315 4.11361 39.0648 1.00785C52.4829 -1.54366 65.3994 0.625597 76.7808 8.93568C86.183 15.8009 91.7359 25.1468 94.6684 36.2416C99.6183 54.9622 90.3137 76.4751 74.2963 86.0543C66.5806 90.6429 66.6597 90.6429 58.0099 93.3361Z" fill="white"/>
</svg>
