<svg width="93" height="93" viewBox="0 0 93 93" fill="none" xmlns="http://www.w3.org/2000/svg">
<path d="M71.1134 16.606C70.0352 16.606 68.9813 16.9257 68.0848 17.5247C67.1884 18.1237 66.4897 18.975 66.0771 19.9711C65.6645 20.9672 65.5565 22.0633 65.7669 23.1208C65.9772 24.1782 66.4964 25.1495 67.2588 25.9119C68.0211 26.6743 68.9925 27.1935 70.0499 27.4038C71.1074 27.6142 72.2034 27.5062 73.1995 27.0936C74.1956 26.681 75.047 25.9823 75.646 25.0858C76.245 24.1894 76.5647 23.1354 76.5647 22.0573C76.5647 20.6115 75.9904 19.2249 74.9681 18.2026C73.9457 17.1803 72.5592 16.606 71.1134 16.606Z" fill="white"/>
<path d="M46.8839 23.5969C42.3541 23.5973 37.9262 24.9408 34.16 27.4576C30.3939 29.9744 27.4586 33.5515 25.7254 37.7365C23.9921 41.9215 23.5388 46.5265 24.4227 50.9692C25.3066 55.4118 27.4881 59.4926 30.6912 62.6955C33.8943 65.8984 37.9752 68.0795 42.418 68.9631C46.8607 69.8467 51.4656 69.3931 55.6505 67.6595C59.8354 65.926 63.4123 62.9905 65.9288 59.2241C68.4454 55.4577 69.7886 51.0297 69.7886 46.5C69.7816 40.4276 67.3661 34.6059 63.0721 30.3122C58.7781 26.0186 52.9563 23.6035 46.8839 23.5969ZM46.8839 61.1682C43.9818 61.1688 41.1448 60.3088 38.7316 58.697C36.3184 57.0851 34.4374 54.7938 33.3265 52.1128C32.2156 49.4318 31.9248 46.4815 32.4908 43.6352C33.0568 40.7889 34.4542 38.1744 36.5062 36.1224C38.5583 34.0703 41.1728 32.673 44.0191 32.107C46.8654 31.541 49.8156 31.8318 52.4966 32.9426C55.1776 34.0535 57.4689 35.9345 59.0808 38.3477C60.6927 40.7609 61.5527 43.598 61.552 46.5C61.5476 50.3889 60.0008 54.1173 57.251 56.8671C54.5011 59.617 50.7728 61.1638 46.8839 61.1682Z" fill="white"/>
<path d="M65.0579 93H27.9321C20.5259 92.9912 13.4256 90.0449 8.18906 84.8074C2.95252 79.57 0.00745016 72.4691 0 65.0629V27.9371C0.00701266 20.5307 2.95195 13.4296 8.18857 8.19209C13.4252 2.95453 20.5258 0.00832978 27.9321 0H65.0579C72.465 0.00745247 79.5666 2.95321 84.8042 8.19082C90.0418 13.4284 92.9876 20.53 92.995 27.9371V65.0629C92.9871 72.4699 90.0412 79.5712 84.8037 84.8087C79.5662 90.0462 72.4649 92.9921 65.0579 93ZM27.9321 8.7499C22.8451 8.7556 17.9681 10.7789 14.371 14.376C10.774 17.9731 8.75063 22.8501 8.74493 27.9371V65.0629C8.75063 70.1499 10.774 75.0269 14.371 78.624C17.9681 82.2211 22.8451 84.2444 27.9321 84.2501H65.0579C70.145 84.2444 75.022 82.2211 78.619 78.624C82.2161 75.0269 84.2394 70.1499 84.2451 65.0629V27.9371C84.2394 22.8501 82.2161 17.9731 78.619 14.376C75.022 10.7789 70.145 8.7556 65.0579 8.7499H27.9321Z" fill="white"/>
</svg>
