<svg width="115" height="94" viewBox="0 0 115 94" fill="none" xmlns="http://www.w3.org/2000/svg">
<path d="M113.748 11.2602C110.054 12.8462 106.171 13.9533 102.196 14.5545C104.058 14.2396 106.787 10.8803 107.876 9.51929C109.588 7.45373 110.891 5.08112 111.715 2.5282C111.815 2.32824 111.887 2.07704 111.686 1.92707C111.589 1.88447 111.482 1.86673 111.376 1.87546C111.269 1.88418 111.167 1.91909 111.078 1.97706C106.747 4.2908 102.144 6.05412 97.3754 7.226C97.2112 7.27606 97.0363 7.27918 96.8704 7.23501C96.7045 7.19084 96.5544 7.10114 96.4368 6.97605C96.0686 6.53664 95.6662 6.1271 95.2333 5.7513C93.257 4.04566 91.0171 2.67184 88.6009 1.68337C85.3771 0.379677 81.9004 -0.178702 78.4304 0.0499506C75.0577 0.274155 71.7692 1.20132 68.7761 2.7719C65.7736 4.33766 63.1237 6.50218 60.9902 9.13187C58.7766 11.8572 57.1891 15.0357 56.3399 18.4425C55.6123 21.6729 55.5274 25.0148 56.0899 28.278C56.1612 28.8229 56.1112 28.9029 55.6175 28.8229C36.8101 26.0285 21.222 19.2961 8.56202 4.87148C8.01088 4.2466 7.70969 4.2466 7.26603 4.92147C1.72215 13.2223 4.40786 26.5596 11.3277 33.1133C12.2513 33.9881 13.2023 34.8629 14.2209 35.6628C11.055 35.4207 7.96834 34.5542 5.13896 33.1133C4.59407 32.7696 4.31538 32.9696 4.26414 33.5932C4.23047 34.4936 4.28068 35.3953 4.41411 36.2864C4.96873 40.5224 6.63768 44.5353 9.25051 47.9153C11.8633 51.2953 15.3264 53.9212 19.2861 55.525C20.2537 55.9445 21.2652 56.2542 22.3018 56.4486C20.4821 56.8423 18.6125 57.1284 13.3923 56.721C12.7474 56.5961 12.4975 56.921 12.7474 57.5446C16.6654 68.2237 25.1199 71.4043 31.4562 73.2165C32.3085 73.3664 33.1533 73.3664 34.0056 73.5601C33.9557 73.6389 33.9057 73.6389 33.8557 73.7101C31.7573 76.9195 24.4726 79.2965 21.0782 80.4862C14.8642 82.7035 8.24432 83.551 1.67216 82.9707C0.626122 82.8133 0.411166 82.827 0.124973 82.9707C-0.161219 83.1432 0.0887303 83.3932 0.426162 83.6656C1.7509 84.5404 3.09812 85.3128 4.46535 86.0651C8.5902 88.2602 12.9421 89.9989 17.444 91.2503C40.758 97.689 67.0227 92.9625 84.5267 75.5647C98.2739 61.9062 103.092 43.0713 103.092 24.2101C103.092 23.4727 103.967 23.0641 104.481 22.6704C107.973 19.9698 111.049 16.7723 113.613 13.1798C114.018 12.6603 114.232 12.0183 114.222 11.3602V11.2602C114.222 10.959 114.214 11.0527 113.75 11.2602" fill="white"/>
</svg>
